# xmcd
#
# Track frame offsets:
#	150
#	21176
#	44094
#	65359
#	84600
#	99938
#	119342
#	133588
#	150390
#	168002
#	183886
#	197523
#	232051
#	248785
#	276609
#	303444
#	320232
#	340246
#
# Disc length: 4815 seconds
#
# Revision: 1
# Processed by: cddbd v1.4b42PL0 Copyright (c) Steve Scherf et al.
# Submitted via: audiograbber 1.80
#
DISCID=fc12cd12
DTITLE=Santana - (2) The Best Of
DYEAR=1900
DGENRE=
TTITLE0=Africa Bamba
TTITLE1=Aqua Marine
TTITLE2=Put Your Lights On (featuring Everlas)
TTITLE3=Oye Como V
TTITLE4=Tales Of Kilimanjaro
TTITLE5=Maria Maria (Produced by Wyclef Jean and Jerry "Wonder" Duplessis)
TTITLE6=I'll Be Waiting (Single Version)
TTITLE7=Stormy
TTITLE8=Love Is You
TTITLE9=The Sensitive Kind
TTITLE10=Guru's Song
TTITLE11=The Calling (featuring Eric Clapton)
TTITLE12=Written In Sand
TTITLE13=Primavera
TTITLE14=Blues For Salvador
TTITLE15=Before We Go
TTITLE16=Gypsy Woman
TTITLE17=Treat
EXTD=
EXTT0=
EXTT1=
EXTT2=
EXTT3=
EXTT4=
EXTT5=
EXTT6=
EXTT7=
EXTT8=
EXTT9=
EXTT10=
EXTT11=
EXTT12=
EXTT13=
EXTT14=
EXTT15=
EXTT16=
EXTT17=
PLAYORDER=
